<svg width="78" height="90" viewBox="0 0 78 90" fill="none" xmlns="http://www.w3.org/2000/svg">
<path fill-rule="evenodd" clip-rule="evenodd" d="M24.5884 11.5383C23.7786 15.5195 20.9228 18.4613 17.5242 18.4613C14.1256 18.4613 11.2698 15.5195 10.4601 11.5383H8.58925C9.43401 16.8048 13.1133 20.7689 17.5242 20.7689C21.9352 20.7689 25.6145 16.8048 26.4593 11.5383H24.5884ZM24.5884 6.92298C23.7786 2.94173 20.9228 0 17.5242 0C14.1256 0 11.2698 2.94173 10.4601 6.92298H6.58339H4.75991V9.23063C4.75991 18.152 10.4747 25.3842 17.5242 25.3842C24.5738 25.3842 30.2886 18.152 30.2886 9.23063V6.92298H28.4651H24.5884ZM63.1112 32.3072C67.1394 32.3072 70.4051 28.1744 70.4051 23.0766C70.4051 17.9787 67.1394 13.846 63.1112 13.846C59.0829 13.846 55.8172 17.9787 55.8172 23.0766C55.8172 28.1744 59.0829 32.3072 63.1112 32.3072ZM35.759 66.9221H33.9355V69.2298V89.9987H37.5825V71.5374H59.4642V89.9987H63.1112V69.2298V66.9221H61.2877H35.759ZM54.5284 28.8956C55.7454 29.1238 56.7895 30.1133 57.305 31.527L61.7977 43.8455H74.052C76.0662 43.8455 77.699 45.9118 77.699 48.4608C77.699 51.0099 76.0662 53.0761 74.052 53.0761H59.4642C58.0417 53.0761 56.749 52.0294 56.1529 50.3949L53.4801 43.066C52.2513 46.2494 51.0547 50.4281 50.5711 55.3838H66.7581C68.2916 55.3838 69.6614 56.5979 70.1855 58.4218L77.4794 83.8061C78.1678 86.2017 77.1913 88.8497 75.2984 89.7208C73.4054 90.592 71.313 89.3562 70.6246 86.9607L64.2036 64.6144H46.6999C45.7327 64.6144 44.8051 64.1282 44.1211 63.2626C43.4371 62.397 43.0529 61.2231 43.0529 59.9991C43.0529 55.3656 43.5936 51.1652 44.3933 47.4861C41.7429 50.9342 38.0369 53.0761 33.9357 53.0761H27.7804V86.0311C27.7804 88.2135 26.3694 89.9989 24.6449 89.9989C22.9205 89.9989 21.5095 88.2135 21.5095 86.0311V58.9085H13.3204V86.0311C13.3204 88.2135 11.9095 89.9989 10.185 89.9989C8.46047 89.9989 7.04952 88.2135 7.04952 86.0311V46.8298C5.32504 46.8298 0 42.6758 0 32.4468C0 25.6981 4.08045 21.8164 6.25427 20.9538C8.5658 24.5087 11.9071 26.9507 15.7008 27.5495V37.8375C15.7008 46.2536 21.0919 53.0761 27.7421 53.0761V48.4608C23.1059 48.4608 19.3477 43.7047 19.3477 37.8375V27.5493C22.7461 27.013 25.7815 24.9975 28.0388 22.0278L36.4539 30.6376L42.2004 30.6379C43.5161 30.6379 44.6147 31.8136 44.8764 33.38V29.9996H48.5233V34.6149V34.6843V35.2979C49.0148 34.2664 49.4763 33.3886 49.8747 32.6744C50.2617 31.9805 50.591 31.4379 50.8326 31.0555C50.9535 30.8645 51.0525 30.7131 51.1264 30.6026C51.1632 30.5474 51.1938 30.5024 51.2175 30.4678L51.248 30.4235L51.2593 30.4071L51.264 30.4004L51.266 30.3976C51.2671 30.3963 51.268 30.3949 53.9938 33.4611L51.268 30.3949C52.0853 29.2311 53.3112 28.6674 54.5284 28.8956ZM44.8753 34.8256C44.7863 42.3753 39.9225 48.4608 33.9357 48.4608H27.7804V30.6658L33.767 36.791C34.2537 37.289 34.8608 37.5606 35.4866 37.5606L42.2003 37.5608C43.5141 37.5608 44.6116 36.3885 44.8753 34.8256ZM56.7283 36.515C56.7297 36.5129 56.7301 36.5122 56.7283 36.515Z" fill="#333333"/>
</svg>
