<svg width="67" height="90" viewBox="0 0 67 90" fill="none" xmlns="http://www.w3.org/2000/svg">
<path id="Vector" d="M5.82995 32.3509C5.82995 30.5465 6.52232 28.907 7.63804 27.7196V23.2174C7.63804 14.0052 13.1124 8.48026 17.7043 5.47075C22.9204 2.04476 29.9297 0 36.452 0C43.9461 0 48.7895 2.74438 48.7895 6.99544V8.30127H49.5464C53.1661 8.30127 56.14 11.121 56.3875 14.6832C55.4871 14.2528 54.5436 13.8797 53.5714 13.5712C52.958 13.3775 52.3302 13.2089 51.6916 13.0689L51.6845 13.0654L51.541 13.0367C50.0343 12.7138 48.4988 12.5524 46.9706 12.5524C42.7016 12.5524 38.4899 13.833 34.9169 16.1828C34.3609 16.5487 33.8192 16.9397 33.299 17.3558C32.56 17.9477 31.8641 18.5827 31.2112 19.2571L22.0741 19.519C18.7665 19.6123 16.1764 22.2777 16.1764 25.5853V28.0247C16.1764 28.5054 15.9038 28.9467 15.4733 29.1584C15.0428 29.37 14.5298 29.3234 14.1459 29.0328C13.5253 28.5628 12.797 28.3153 12.0437 28.3153C10.0133 28.3153 8.35946 30.127 8.35946 32.3511C8.35946 34.3851 9.74418 36.1071 11.5809 36.3583C12.1334 36.4336 12.571 36.8641 12.6572 37.4129C14.3002 47.8163 22.4829 55.368 32.1184 55.368C34.1238 55.368 36.0861 55.0416 37.9587 54.403C39.0852 54.916 40.2726 55.3321 41.5103 55.6515C38.5865 57.1331 35.4046 57.9007 32.1181 57.9007C28.8249 57.9007 25.5926 57.1043 22.6542 55.6084C21.8973 55.2245 21.1547 54.7905 20.4372 54.3097C19.4614 53.6568 18.5287 52.9214 17.6461 52.1035C13.8938 48.6201 11.3073 43.874 10.3027 38.6613C7.69832 37.8613 5.82995 35.3034 5.82995 32.3509ZM41.5923 55.6115C41.5672 55.6258 41.5385 55.6402 41.5134 55.651C41.5457 55.6617 41.5816 55.6689 41.6175 55.6761L41.5923 55.6115ZM60.7561 51.4573C60.157 51.9416 59.5256 52.3972 58.8691 52.8241C58.2162 53.2475 57.5453 53.6349 56.8565 53.9828L61.8502 61.6921C62.1838 62.2123 62.704 62.5675 63.3139 62.7002C63.9238 62.8294 64.5443 62.7182 65.0609 62.381C65.5811 62.0437 65.9398 61.5271 66.069 60.9172C66.1982 60.3074 66.087 59.6831 65.7497 59.163L60.7561 51.4573ZM51.0167 15.5112C61.4558 17.7426 68.1361 28.0562 65.9045 38.4991C64.8211 43.5573 61.8363 47.8913 57.4956 50.7033C54.3244 52.7589 50.7011 53.8208 47.0096 53.8208C45.65 53.8208 44.2832 53.6773 42.9236 53.3867C32.4845 51.1553 25.8042 40.8454 28.0359 30.4062C30.2672 19.9634 40.5739 13.2833 51.0167 15.5112ZM50.4858 17.983C49.3091 17.7318 48.1288 17.6099 46.9701 17.6099C39.1999 17.6099 32.1935 23.0304 30.5074 30.93C28.5666 40.0061 34.371 48.9677 43.4473 50.9083C47.8454 51.8481 52.344 51.0195 56.1181 48.5764C59.892 46.1334 62.4857 42.3631 63.4291 37.9683C65.3699 28.8886 59.5621 19.9244 50.4858 17.983ZM64.243 77.5478V90H0V77.545C0 73.2151 2.16323 69.5021 5.92636 67.3529C6.14161 67.2309 6.36761 67.1054 6.60079 66.9834C10.3245 64.9816 14.45 63.0517 19.537 60.9315L31.2141 72.8915C31.4545 73.1354 31.7809 73.2717 32.1182 73.2717C32.459 73.2717 32.7854 73.1354 33.0222 72.8915L44.703 60.9343C49.79 63.0544 53.9152 64.9845 57.6465 66.9898C57.8833 67.1118 58.1021 67.2374 58.3174 67.3558C62.0842 69.501 64.243 73.2175 64.243 77.5478ZM22.7582 77.2213C22.7582 76.5684 22.2273 76.0374 21.5779 76.0374H18.9663V73.4222C18.9663 72.7693 18.4353 72.2419 17.786 72.2419H13.5636C12.9106 72.2419 12.3833 72.7728 12.3833 73.4222V76.0374H9.76801C9.1151 76.0374 8.58413 76.5684 8.58413 77.2213V81.4437C8.58413 82.0966 9.11506 82.624 9.76801 82.624H12.3833V85.232C12.3833 85.8849 12.9106 86.4159 13.5636 86.4159H17.786C18.4389 86.4159 18.9663 85.885 18.9663 85.232V82.624H21.5779C22.2308 82.624 22.7582 82.0931 22.7582 81.4437V77.2213ZM48.6738 20.1067C48.5052 19.4287 47.82 19.0126 47.142 19.1812C46.464 19.3498 46.0514 20.035 46.2164 20.713L48.1034 28.3327C48.2039 28.7452 48.5088 29.0789 48.9106 29.2224C49.3124 29.3623 49.7572 29.2941 50.098 29.0358C50.7187 28.5659 51.4433 28.3148 52.1967 28.3148C54.2307 28.3148 55.8845 30.1264 55.8845 32.3505C55.8845 34.3846 54.4962 36.1065 52.6595 36.3577C52.107 36.433 51.6694 36.8635 51.5797 37.4124C50.9806 41.1935 49.4702 44.7414 47.2102 47.6724C46.7833 48.2249 46.8873 49.0213 47.4398 49.4482C47.6694 49.624 47.942 49.7101 48.2111 49.7101C48.5914 49.7101 48.9644 49.5415 49.2156 49.2186C51.5618 46.1729 53.1833 42.5389 53.9294 38.661C56.5411 37.861 58.4137 35.3032 58.4137 32.3507C58.4137 28.7311 55.6227 25.7822 52.1932 25.7822C51.4936 25.7822 50.812 25.9042 50.1663 26.141L48.6738 20.1067ZM42.4067 26.7614C42.4067 25.6205 41.4775 24.6914 40.3367 24.6914C39.1995 24.6914 38.274 25.6205 38.274 26.7614C38.274 27.8986 39.1995 28.8241 40.3367 28.8241C41.4775 28.8277 42.4067 27.9022 42.4067 26.7614ZM38.0874 31.0555C38.0874 29.9147 37.1619 28.9856 36.0247 28.9856C34.8839 28.9856 33.9548 29.9147 33.9548 31.0555C33.9548 32.1927 34.8839 33.1182 36.0247 33.1182C37.1619 33.1182 38.0874 32.1927 38.0874 31.0555ZM36.7816 35.9667C35.6408 35.9667 34.7117 36.8958 34.7117 38.0366C34.7117 39.1738 35.6408 40.0994 36.7816 40.0994C37.9224 40.0994 38.8515 39.1738 38.8515 38.0366C38.8515 36.8958 37.9224 35.9667 36.7816 35.9667ZM44.308 33.9254C45.4452 33.9254 46.3707 32.9963 46.3707 31.8555C46.3707 30.7183 45.4452 29.7927 44.308 29.7927C43.1672 29.7927 42.238 30.7183 42.238 31.8555C42.238 32.9963 43.1672 33.9254 44.308 33.9254ZM44.5878 35.2097C43.447 35.2097 42.5179 36.1388 42.5179 37.2796C42.5179 38.4168 43.447 39.3423 44.5878 39.3423C45.7286 39.3423 46.6577 38.4168 46.6577 37.2796C46.6577 36.1388 45.7286 35.2097 44.5878 35.2097ZM41.6461 40.3074C40.5089 40.3074 39.5834 41.2365 39.5834 42.3773C39.5834 43.5145 40.5089 44.4401 41.6461 44.4401C42.7869 44.4401 43.7161 43.5145 43.7161 42.3773C43.7161 41.2365 42.7905 40.3074 41.6461 40.3074Z" fill="black"/>
</svg>
