<svg width="346" height="298" viewBox="0 0 346 298" fill="none" xmlns="http://www.w3.org/2000/svg">
<path d="M144.431 0C123.996 0.305684 105.539 11.1282 97.1896 27.8627L197.165 54.6783C201.56 31.4009 185.813 8.8323 160.471 1.98369C155.93 0.760956 151.169 0.0910547 146.408 0H144.431ZM93.381 39.0755C88.9132 62.418 104.66 85.0516 130.075 91.8807C155.564 98.7098 182.736 87.5231 193.43 65.8651L93.381 39.0755ZM287.839 67.8813C269.309 67.9463 249.607 75.8811 234.738 94.5473L143.332 209.601C118.796 240.43 129.489 272.689 153.659 287.908C177.902 303.193 215.622 301.437 240.158 270.608L331.491 155.619C356.027 124.725 345.334 92.5311 321.164 77.2469C312.082 71.5234 301.169 68.2065 289.67 67.8813H287.839ZM286.521 79.133C287.473 79.133 288.425 79.133 289.304 79.1981C298.166 79.5233 306.516 82.3199 313.547 86.8076C332.37 98.6447 341.818 122.254 320.651 148.855L273.41 208.366C247.19 202.122 213.498 180.854 198.191 160.887L245.578 101.311C257.956 85.767 272.678 79.3932 286.521 79.133ZM52.0358 128.693C44.9899 128.758 38.0392 130.059 31.5792 132.595C7.32875 142.026 -5.29088 166.09 2.10658 188.724L97.8488 151.587C88.254 137.213 70.8224 128.498 52.0358 128.693ZM103.049 162.253L7.32143 199.455C20.8346 219.878 49.2892 228.072 73.6789 218.642C97.9953 209.146 110.593 184.952 103.049 162.253Z" fill="#E6E6E6"/>
</svg>
