<svg width="69" height="98" viewBox="0 0 69 98" fill="none" xmlns="http://www.w3.org/2000/svg">
<g id="Vector" filter="url(#filter0_d_31_548)">
<path d="M44.697 24.0181C41.7555 22.4251 39.253 20.14 37.3927 17.3604C37.0853 16.8935 36.5695 16.5969 36.0097 16.5639C35.4005 16.52 34.8133 16.7672 34.4182 17.2341C30.6206 21.667 25.3632 24.5894 19.6007 25.4683C19.6226 31.9941 21.1757 37.0313 24.1283 40.0524C26.2356 42.1946 29.1442 43.3538 32.1406 43.2548C35.1919 43.3537 38.1443 42.1562 40.2626 39.9534C43.3853 36.6905 44.8947 31.1865 44.697 24.0181ZM32.1571 39.8326C30.9278 39.8326 29.748 39.3438 28.8809 38.4758C28.0138 37.6079 27.5254 36.427 27.5254 35.1965H36.7945H36.789C36.789 37.7563 34.7145 39.8326 32.1571 39.8326Z" fill="black"/>
<path d="M25.2419 44.0626C24.1663 43.4639 23.184 42.7058 22.3278 41.827C19.8583 39.3001 18.2338 35.6582 17.5149 31.1209C16.3734 30.9451 15.3911 30.2255 14.8807 29.1928C14.3703 28.1546 14.3978 26.9405 14.9466 25.9244C14.8478 25.9299 14.7435 25.9409 14.6337 25.9409H14.6173H14.6228C13.9313 25.9354 13.3715 25.3751 13.3605 24.683C13.3551 24.3479 13.4868 24.0238 13.7282 23.7876C13.9642 23.5459 14.288 23.414 14.6228 23.414C22.0314 23.3371 28.2218 20.6345 32.4974 15.5973C33.4084 14.5317 34.7585 13.9549 36.1579 14.0318C37.5189 14.1142 38.7592 14.8393 39.5055 15.9818C41.9696 19.6677 45.7014 22.3208 49.9874 23.4524C50.5965 23.6172 50.9917 24.2105 50.9148 24.8367C50.8325 25.4629 50.3002 25.9353 49.6636 25.9408C49.5538 25.9408 49.4441 25.9243 49.3398 25.8859C49.3288 25.8914 49.3233 25.8859 49.3179 25.8804C49.6197 26.4132 49.7843 27.012 49.7788 27.6272C49.7788 29.3686 48.5056 30.8517 46.7825 31.1099V31.1154C46.0745 35.5868 44.494 39.1793 42.0792 41.7061L42.0847 41.7115C41.1957 42.6399 40.1749 43.431 39.0555 44.0626C45.427 50.6763 55.7008 49.9677 58.9981 43.0849C59.1628 42.7333 59.1134 42.3158 58.8829 42.0082C58.6469 41.6951 58.2627 41.5413 57.8786 41.5962C53.8285 42.2993 51.4028 39.7835 52.9724 33.9334C55.0029 24.6775 54.037 16.7899 49.3997 10.5603C43.5057 2.61186 36.2451 0.134349 32.146 3.39724C28.041 0.139833 20.7806 2.61173 14.8868 10.5603C10.2549 16.7895 9.27808 24.6775 11.3141 33.9334C12.8836 39.778 10.4634 42.2939 6.42429 41.5962L6.41881 41.6017C6.03465 41.5413 5.65049 41.6951 5.41452 42.0082C5.18403 42.3213 5.14013 42.7333 5.29928 43.0849C8.60854 49.9622 18.8489 50.6598 25.2419 44.0626Z" fill="black"/>
<path d="M13.2173 54.2409C13.1021 57.4269 13.3325 62.3982 15.3905 65.8588C18.6504 65.6501 21.6194 67.7319 22.5358 70.8685L25.0218 79.4158H25.0163C25.3181 80.443 24.7254 81.5197 23.6992 81.8217C23.2053 81.9645 22.6729 81.9096 22.2229 81.6624C21.7729 81.4097 21.4381 80.9923 21.2899 80.4979L18.804 71.9506L18.8094 71.9561C18.3265 70.3357 16.6307 69.4073 15.0118 69.8742C13.3875 70.3466 12.449 72.0385 12.91 73.6644L15.3959 82.2117C15.5386 82.706 15.4783 83.2389 15.2313 83.6893C14.9843 84.1398 14.5673 84.4749 14.0734 84.6177C13.5794 84.766 13.0471 84.7056 12.5971 84.4584C12.1471 84.2112 11.8123 83.7937 11.6696 83.2993L9.18363 74.7521C8.66776 72.9724 8.8818 71.0607 9.76534 69.4292C10.2538 68.5558 10.9288 67.7977 11.7465 67.2155C9.92452 63.7604 9.38124 59.5251 9.34289 56.2238C5.0294 58.6297 2 61.5467 2 66.864V88.1164C2.01098 90.2587 3.74518 91.9945 5.88541 92H30.1425V76.8112L20.44 50.9393C17.9923 52.1423 15.5058 53.1917 13.2173 54.2409Z" fill="black"/>
<path d="M35.4542 61.7615C35.4542 66.1834 28.8247 66.1834 28.8247 61.7615C28.8247 57.3396 35.4542 57.3396 35.4542 61.7615Z" fill="black"/>
<path d="M43.8513 50.956L34.1487 76.8124V91.9843H58.4059V91.9898C59.4376 91.9898 60.4254 91.5778 61.1498 90.8527C61.8797 90.1222 62.2913 89.1333 62.2913 88.1062V66.8594C62.2913 57.576 53.071 55.5708 43.8513 50.956ZM54.86 77.5704H51.9295V80.5037V80.4982C51.9295 81.855 50.8319 82.9591 49.4764 82.9591C48.1209 82.9591 47.0233 81.855 47.0233 80.4982V77.5649L44.0928 77.5704C42.7373 77.5704 41.6397 76.4663 41.6397 75.1095C41.6397 73.7527 42.7373 72.654 44.0928 72.654H47.0178V69.7208H47.0233C47.0233 68.364 48.1209 67.2653 49.4764 67.2653C50.8319 67.2653 51.9295 68.364 51.9295 69.7208V72.654H54.86C56.2155 72.654 57.3131 73.7527 57.3131 75.1095C57.3131 76.4663 56.2155 77.5704 54.86 77.5704Z" fill="black"/>
</g>
<defs>
<filter id="filter0_d_31_548" x="0" y="0" width="68.2913" height="98" filterUnits="userSpaceOnUse" color-interpolation-filters="sRGB">
<feFlood flood-opacity="0" result="BackgroundImageFix"/>
<feColorMatrix in="SourceAlpha" type="matrix" values="0 0 0 0 0 0 0 0 0 0 0 0 0 0 0 0 0 0 127 0" result="hardAlpha"/>
<feOffset dx="2" dy="2"/>
<feGaussianBlur stdDeviation="2"/>
<feComposite in2="hardAlpha" operator="out"/>
<feColorMatrix type="matrix" values="0 0 0 0 0 0 0 0 0 0 0 0 0 0 0 0 0 0 0.45 0"/>
<feBlend mode="normal" in2="BackgroundImageFix" result="effect1_dropShadow_31_548"/>
<feBlend mode="normal" in="SourceGraphic" in2="effect1_dropShadow_31_548" result="shape"/>
</filter>
</defs>
</svg>
