<svg width="96" height="90" viewBox="0 0 96 90" fill="none" xmlns="http://www.w3.org/2000/svg">
<path fill-rule="evenodd" clip-rule="evenodd" d="M5.1552 25.5912C2.31951 22.7304 0.383202 18.0881 0.00372056 10.5889C-0.0740414 9.05231 1.07765 7.7866 2.47362 7.81363C6.70836 7.89528 9.95138 8.21464 12.4279 9.01971C13.4892 5.98642 15.6061 3.1222 18.7785 0.505488C19.5956 -0.168496 20.7236 -0.168496 21.5407 0.505488C24.7391 3.14363 26.8644 6.03351 27.9171 9.09439C30.4674 8.14943 33.7363 7.87383 37.8522 7.80862C39.2482 7.78661 40.3934 9.05231 40.3155 10.5889C39.9361 18.0881 37.9999 22.7304 35.1642 25.5909C36.5488 26.7279 37.3514 28.6359 37.0569 30.6989C36.3564 35.602 35.1472 43.1525 33.2446 52.3778H17.6316V57.9511H32.0529C30.1546 66.5215 27.7032 76.2188 24.5768 86.4002C23.103 91.1999 17.2165 91.1999 15.7426 86.4002C14.5153 82.403 13.3918 78.4802 12.365 74.6711H17.6316V69.0978H10.9092C8.51847 59.6471 6.73887 51.0689 5.44612 44.0177H15.1036V38.4444H4.46803C3.96169 35.422 3.56484 32.814 3.26267 30.6989C2.96795 28.6359 3.77065 26.7279 5.1552 25.5912ZM23.1894 11.0699L24.9146 16.0867L29.5282 14.3771C30.8003 13.9059 32.5214 13.6244 34.9731 13.4828C34.2227 18.867 32.4142 21.1409 30.7657 22.3163C28.4108 23.995 24.9798 24.5058 20.2352 24.5111H20.084C15.3397 24.5058 11.9085 23.995 9.55357 22.3163C7.90662 21.142 6.09999 18.8711 5.34839 13.4982C7.87825 13.6506 9.67896 13.9368 10.9977 14.3654L15.4681 15.8186L17.1452 11.0255C17.6273 9.6481 18.5581 8.10178 20.1596 6.47158C21.778 8.11905 22.7116 9.68098 23.1894 11.0699Z" fill="#333333"/>
<path fill-rule="evenodd" clip-rule="evenodd" d="M72.5074 15.3348C67.5198 20.8326 67.0339 28.5085 69.837 35.7341C82.1098 26.8769 96 37.8308 96 55.1644C96 70.5546 83.5498 83.0311 68.1918 83.0311C52.8338 83.0311 40.3835 70.5546 40.3835 55.1644C40.3835 39.0232 52.4285 28.4141 63.996 34.183C62.0209 26.379 63.0435 17.8849 68.9322 11.3939L72.5074 15.3348ZM88.3404 61.4135C88.6791 59.9204 87.8555 58.4075 86.501 58.0341C85.1465 57.661 83.774 58.5686 83.4355 60.0617C82.3977 64.6366 79.313 68.0371 75.1628 69.1808C73.8083 69.5542 72.9846 71.0671 73.3234 72.5602C73.6619 74.0533 75.0344 74.9612 76.3889 74.5878C82.3507 72.9447 86.8501 67.9853 88.3404 61.4135Z" fill="#333333"/>
<path d="M73.2478 27.2977C80.8319 27.2977 85.8879 21.7244 85.8879 13.3644C78.3039 13.3644 73.2478 18.9377 73.2478 27.2977Z" fill="#333333"/>
</svg>
