<svg width="81" height="98" viewBox="0 0 81 98" fill="none" xmlns="http://www.w3.org/2000/svg">
<g id="Vector" filter="url(#filter0_d_31_383)">
<path d="M57.689 42.2166C56.706 45.2736 53.54 47.0196 50.593 46.1466C47.645 45.3816 45.899 42.1077 46.663 39.0507C47.646 35.9937 50.812 34.2477 53.759 35.1207C56.816 36.1026 58.563 39.2696 57.689 42.2166ZM56.598 20.5996C58.563 20.0546 59.654 18.0896 59.108 16.1236C58.563 14.1586 56.598 13.0676 54.632 13.6136C52.776 14.1586 51.684 16.2336 52.122 18.0896C52.667 20.0546 54.633 21.1446 56.598 20.5996ZM30.177 16.0146C26.247 16.3416 23.408 19.8356 23.736 23.6566C24.173 27.4786 27.557 30.3166 31.378 30.0976C35.308 29.7706 38.147 26.2766 37.819 22.4556C37.492 18.5256 33.998 15.6866 30.177 16.0146ZM8.51496 57.5696C8.40596 56.4776 8.23596 55.9706 8.45296 54.9887C8.88996 52.5867 8.45296 51.7127 6.05096 50.8396C5.28696 50.6206 4.63096 50.4026 3.86696 49.9666C1.90196 48.8746 1.46496 47.6737 2.66596 45.5997C4.63096 42.1067 6.92396 38.6127 8.88896 35.0107C9.54396 33.9187 9.32596 32.1726 9.32596 30.7526C9.32596 29.2246 8.56196 27.4766 8.88896 25.9496C9.76196 22.8926 10.745 19.8356 12.055 16.9976C15.112 10.1196 20.789 5.97065 27.776 4.11565C35.746 1.93165 44.151 1.05865 52.121 3.35165C62.71 6.40665 74.282 15.6856 74.282 28.7866C74.282 33.1536 73.299 37.8476 71.444 41.7786C66.094 53.1316 65.112 58.3726 68.059 70.4906C68.059 70.4906 68.059 71.5826 69.915 74.5306C69.915 74.5306 71.778 76.7046 74.288 79.6336C65.609 87.3226 54.201 91.9986 41.694 91.9986C38.445 91.9986 35.273 91.6756 32.2 91.0746C32.601 90.1686 33.042 89.1227 33.234 88.0686C33.015 86.8677 32.906 85.6666 32.579 84.6836C31.487 81.1906 30.177 77.6966 28.867 74.2036C28.212 72.2386 26.465 72.2386 24.609 72.4576C21.771 72.6767 18.714 73.1126 15.875 72.7856C11.508 72.3486 10.525 70.4926 10.634 66.1266C10.743 64.9256 10.415 63.1787 9.65096 62.3057C8.12296 60.7777 8.66796 59.6856 9.65096 58.3756C8.69296 58.6376 8.51496 57.5696 8.51496 57.5696ZM46.335 17.5426L49.501 18.4156C49.501 18.6346 49.61 18.8526 49.61 18.9606C49.719 19.1796 49.719 19.3976 49.829 19.5056L47.536 22.0156C48.081 22.8886 48.519 23.5436 49.282 24.1996L52.12 22.4536C52.448 22.6726 52.775 22.8906 53.103 22.9986L53.212 26.2746C54.085 26.4936 54.959 26.6026 55.941 26.6026L56.814 23.4366C57.033 23.4366 57.251 23.3276 57.359 23.3276C57.578 23.2186 57.796 23.2186 57.904 23.1086L60.414 25.4016C61.287 24.8566 61.942 24.4186 62.598 23.6556L60.852 20.8176C61.071 20.4896 61.289 20.1626 61.397 19.8346L64.673 19.7256C64.892 18.8526 65.001 17.9786 65.001 16.9966L61.835 16.2326C61.835 16.0136 61.726 15.7956 61.726 15.6876C61.617 15.4686 61.617 15.2506 61.507 15.1426L63.8 12.6326C63.255 11.7596 62.817 11.1046 62.054 10.4486L59.216 12.1956C58.888 11.9766 58.561 11.7586 58.233 11.6506L58.124 8.37465C57.251 8.15565 56.377 8.04665 55.395 8.04665L54.522 11.2126C54.303 11.2126 54.085 11.3216 53.977 11.3216C53.758 11.4306 53.54 11.4306 53.432 11.5406L51.029 9.24665C50.156 9.79165 49.501 10.2296 48.845 10.9936L50.591 13.8316C50.372 14.1596 50.154 14.4866 50.046 14.8146H46.662C46.444 15.6866 46.335 16.5606 46.335 17.5426ZM35.744 36.9747C37.054 36.4297 38.473 35.8826 39.565 34.9007L38.364 31.6246C39.347 30.7516 40.111 29.8776 40.766 28.7866L44.259 29.4416C44.914 28.1316 45.242 26.7126 45.569 25.2926L42.403 23.7646C42.403 23.1096 42.403 22.5636 42.403 21.9086C42.294 21.2536 42.184 20.7076 42.075 20.1616L44.913 18.0876C44.368 16.7776 43.821 15.3586 42.839 14.2666L39.563 15.4676C38.69 14.4846 37.816 13.7216 36.725 13.0656L37.38 9.57265C36.07 8.91765 34.651 8.58965 33.231 8.26265L31.703 11.4286C31.048 11.4286 30.502 11.4286 29.847 11.4286C29.192 11.5376 28.646 11.6476 28.1 11.7566L26.026 8.91865C24.716 9.46365 23.297 10.0106 22.205 10.9926L23.406 14.2686C22.423 15.1416 21.659 16.0146 21.004 17.1066L17.511 16.4516C16.856 17.7616 16.528 19.1806 16.201 20.6006L19.367 22.1286C19.367 22.7836 19.367 23.3296 19.367 23.9846C19.476 24.6396 19.586 25.1856 19.695 25.7316L16.857 27.8056C17.402 29.1156 17.949 30.5346 18.931 31.6266L22.206 30.4256C23.079 31.4086 23.953 32.1726 25.044 32.8276L24.389 36.2127C25.59 36.9767 27.119 37.4126 28.538 37.6316L30.066 34.4656C30.721 34.4656 31.267 34.4656 31.922 34.4656C32.577 34.3566 33.123 34.2467 33.669 34.1376L35.744 36.9747ZM65.221 48.2216L61.4 44.2916C61.509 43.9636 61.619 43.7467 61.728 43.4187C61.837 43.0907 61.947 42.7636 61.947 42.4356L67.078 41.1256C67.187 39.7057 66.969 38.2877 66.533 36.7587L61.183 36.6497C60.964 36.1047 60.638 35.5577 60.31 35.1217L63.039 30.5366C62.056 29.5536 60.965 28.5716 59.654 27.8076L55.724 31.4096C55.396 31.3006 55.179 31.1906 54.851 31.0816C54.523 30.9726 54.196 30.8626 53.868 30.8626L52.558 25.7316C51.138 25.6226 49.72 25.8406 48.191 26.2766V31.8436C47.646 32.0626 47.099 32.3886 46.663 32.7166L42.078 29.9876C41.097 30.8617 40.222 32.0626 39.458 33.2646L43.06 37.1946C42.951 37.5226 42.841 37.7397 42.732 38.0676C42.623 38.3956 42.513 38.7227 42.513 39.0507L37.382 40.2517C37.273 41.6716 37.491 43.0896 37.927 44.6186L43.277 44.7276C43.496 45.2726 43.822 45.8196 44.15 46.2556L41.421 50.8406C42.404 51.8237 43.495 52.8056 44.806 53.5696L48.736 49.9677C49.064 50.0767 49.281 50.1866 49.609 50.2957C49.937 50.4047 50.264 50.5146 50.592 50.5146L51.902 55.6456C53.322 55.7547 54.74 55.5367 56.269 55.1007L56.378 49.7506C56.923 49.5316 57.47 49.2057 57.906 48.8777L62.491 51.6067C63.474 50.6236 64.457 49.5317 65.221 48.2216Z" fill="black"/>
</g>
<defs>
<filter id="filter0_d_31_383" x="0" y="0" width="80.288" height="97.9987" filterUnits="userSpaceOnUse" color-interpolation-filters="sRGB">
<feFlood flood-opacity="0" result="BackgroundImageFix"/>
<feColorMatrix in="SourceAlpha" type="matrix" values="0 0 0 0 0 0 0 0 0 0 0 0 0 0 0 0 0 0 127 0" result="hardAlpha"/>
<feOffset dx="2" dy="2"/>
<feGaussianBlur stdDeviation="2"/>
<feComposite in2="hardAlpha" operator="out"/>
<feColorMatrix type="matrix" values="0 0 0 0 0 0 0 0 0 0 0 0 0 0 0 0 0 0 0.45 0"/>
<feBlend mode="normal" in2="BackgroundImageFix" result="effect1_dropShadow_31_383"/>
<feBlend mode="normal" in="SourceGraphic" in2="effect1_dropShadow_31_383" result="shape"/>
</filter>
</defs>
</svg>
