<svg width="98" height="98" viewBox="0 0 98 98" fill="none" xmlns="http://www.w3.org/2000/svg">
<g id="Vector" filter="url(#filter0_d_31_440)">
<path d="M43.3556 54.6696C45.9278 55.6557 48.7773 56.5256 51.1321 56.5256C51.6683 56.5256 52.167 56.4619 52.6394 56.3644C52.3394 57.5267 51.8483 58.5729 51.0234 58.8541C49.6023 59.334 47.0301 57.928 43.3556 54.6696ZM33.6148 49.574C31.5413 50.2827 29.1978 50.6914 26.9444 50.6914C24.3573 50.6914 21.9275 50.1665 20.2215 49.0191C19.4679 51.4638 19.4866 53.1473 20.2965 53.9085C22.5275 56.012 30.5893 52.4425 33.6714 51.0702C33.6377 50.8902 33.6152 50.7065 33.6152 50.5152L33.6148 49.574ZM50.45 60.9428C48.7777 60.9428 46.7043 59.9491 44.0309 57.8494C47.0267 61.3665 49.7301 63.0425 51.1812 62.5962C51.9123 62.375 52.4335 61.5201 52.7335 60.1515C52.411 60.4103 52.0586 60.6165 51.6686 60.7477C51.2861 60.8752 50.8812 60.9428 50.45 60.9428ZM44.762 46.942C43.1835 46.942 41.5674 46.7021 40.0338 46.2071V47.4595C44.8145 49.3417 50.9899 49.0417 53.0593 46.7396C53.8205 45.8922 53.9517 44.7748 53.4605 43.41C53.3931 43.4999 53.3293 43.5862 53.2618 43.6649C51.522 45.7909 48.2378 46.942 44.762 46.942ZM46.708 50.6915C44.4545 50.6915 42.1073 50.2828 40.0376 49.5741V50.5152C40.0376 50.7065 40.0151 50.8977 39.9813 51.0777C43.0484 52.435 51.1322 56.0008 53.3562 53.9048C54.1661 53.1436 54.1849 51.4601 53.4312 49.0154C51.7252 50.1665 49.2914 50.6915 46.708 50.6915ZM21.9652 60.7481C21.5753 60.6169 21.2266 60.4107 20.9041 60.1557C21.2041 61.5243 21.7327 62.3716 22.4639 62.5966C23.9149 63.0353 26.6109 61.363 29.5992 57.8573C26.9334 59.9532 24.8636 60.9431 23.1876 60.9431C22.7526 60.9431 22.3477 60.8756 21.9652 60.7481ZM20.9829 56.3612C21.2829 57.5235 21.7778 58.5734 22.6064 58.8547C24.0388 59.3421 26.6109 57.9323 30.278 54.6739C27.7095 55.6637 24.8712 56.5299 22.524 56.5299C21.9728 56.5299 21.4666 56.4624 20.9829 56.3612ZM41.4628 6.06853L43.7988 2.00403H29.8316L32.1863 6.06853H41.4628ZM24.3837 17.827H49.2695C49.7344 17.827 50.1131 17.437 50.1131 16.9571L50.1094 8.06704H23.5103V16.9571C23.514 17.4296 23.9113 17.827 24.3837 17.827ZM40.0384 44.0882C44.2753 45.7043 49.6033 44.9769 51.7258 42.401C53.0569 40.7812 52.6932 38.8577 51.872 37.2154C50.0797 39.6639 46.109 41.4036 40.0425 42.3897L40.0384 44.0882ZM33.6154 47.4628V46.2104C32.0819 46.7016 30.4659 46.9416 28.8873 46.9453C25.4077 46.9453 22.1231 45.7942 20.3759 43.6719C20.3121 43.5932 20.2484 43.5107 20.1847 43.4245C19.6972 44.7856 19.8322 45.8991 20.5896 46.7465C22.6556 49.0449 28.8351 49.345 33.6154 47.4628ZM33.2105 30.8675C33.7917 31.2087 34.3354 31.4449 34.9015 31.6136C34.924 31.6211 34.9427 31.6361 34.9652 31.6436C35.0065 31.6586 35.044 31.6811 35.0852 31.7036C35.1527 31.7411 35.2165 31.7824 35.2727 31.8311C35.3064 31.8611 35.3364 31.8873 35.3664 31.9211C35.4189 31.9848 35.4602 32.0486 35.4977 32.1236C35.5164 32.1573 35.5352 32.1873 35.5502 32.221C35.5914 32.3298 35.6177 32.4498 35.6177 32.5697L35.6139 44.741V44.7447V48.1155V48.1193V50.5152C35.6139 51.1826 36.1576 51.7263 36.825 51.7263C37.4924 51.7263 38.0361 51.1826 38.0361 50.5152V48.1193V48.1155V44.7447V44.741V32.5736C38.0361 32.4499 38.0623 32.3374 38.1035 32.2249C38.1148 32.1911 38.1373 32.1611 38.156 32.1274C38.1935 32.0562 38.2348 31.9849 38.2873 31.9249C38.3135 31.8912 38.3435 31.8649 38.3773 31.8349C38.4335 31.7824 38.4973 31.7412 38.5647 31.7037C38.6022 31.6812 38.636 31.6625 38.6772 31.6475C38.696 31.64 38.711 31.625 38.7335 31.6212C39.2921 31.445 39.8433 31.205 40.4133 30.8826C41.5793 30.2639 41.4707 29.6827 41.4331 29.4915C41.3094 28.8466 40.6645 28.2541 40.2708 28.0517C39.4797 29.0454 37.8674 29.6977 37.155 29.949C36.9412 30.024 36.705 30.024 36.4913 29.949C35.7789 29.6978 34.1628 29.0453 33.3754 28.0517C32.9892 28.2542 32.3369 28.8466 32.2131 29.4953C32.1794 29.6827 32.0669 30.2638 33.2105 30.8675ZM65.4038 84.7558C65.4038 85.307 64.9576 85.757 64.4026 85.757L9.22129 85.7532C8.67011 85.7532 8.22014 85.307 8.22014 84.7521V15.285C8.22014 14.7338 8.66633 14.2838 9.22129 14.2838H21.5163L21.5126 8.06708H2.86989C2.38995 8.06708 2 8.45703 2 8.93696V91.1301C2 91.5951 2.4087 92 2.86989 92H70.7772C71.2422 92 71.6471 91.5913 71.6471 91.1301V36.207C69.3786 35.6971 67.2639 34.7784 65.4004 33.5111L65.4038 84.7558ZM21.5115 16.957C21.5115 18.5392 22.7976 19.8291 24.3837 19.8291H49.2694C50.8367 19.8291 52.1115 18.5431 52.1115 16.957V16.2858H57.4583C57.3833 16.9532 57.3383 17.6318 57.3383 18.3181C57.3383 23.7136 59.6892 28.558 63.405 31.9176V83.7547H10.2183V16.286H21.5122L21.5115 16.957ZM59.3364 79.1425C59.3364 78.5913 58.8902 78.1413 58.3352 78.1413H15.3098C14.7586 78.1413 14.3086 78.5875 14.3086 79.1425C14.3086 79.6937 14.7548 80.1436 15.3098 80.1436H58.3352C58.8901 80.1436 59.3364 79.6937 59.3364 79.1425ZM15.3136 75.0142H18.2045C18.7557 75.0142 19.2056 74.5681 19.2056 74.0131C19.2056 73.4619 18.7594 73.0119 18.2045 73.0119H15.3136C14.7624 73.0119 14.3125 73.4581 14.3125 74.0131C14.3125 74.5643 14.7624 75.0142 15.3136 75.0142ZM59.3364 74.0131C59.3364 73.4619 58.8902 73.0119 58.3352 73.0119H21.9464C21.3952 73.0119 20.9452 73.4581 20.9452 74.0131C20.9452 74.5643 21.3914 75.0142 21.9464 75.0142H58.3391C58.8902 75.0142 59.3364 74.5643 59.3364 74.0131ZM15.3136 67.9089C14.7624 67.9089 14.3125 68.3551 14.3125 68.91C14.3125 69.4612 14.7587 69.9112 15.3136 69.9112H58.3391C58.8902 69.9112 59.3402 69.465 59.3402 68.91C59.3402 68.3588 58.894 67.9089 58.3391 67.9089H15.3136ZM20.7767 34.9391C19.1193 37.4513 18.8457 39.4798 19.1344 41.0133C19.1232 41.0283 19.1082 41.0358 19.0969 41.0545C17.3496 44.0691 17.7696 46.1426 18.6357 47.4662C17.3609 51.0507 17.3721 53.5404 18.662 55.0514C18.3358 60.5744 19.4156 63.7578 21.8791 64.504C22.2203 64.609 22.5765 64.6577 22.944 64.6577C26.7384 64.6577 31.6391 59.2997 35.2688 53.3043C35.73 53.563 36.2548 53.7205 36.8211 53.7205C37.3798 53.7205 37.8934 53.5668 38.3547 53.3155C41.9992 59.3073 46.9073 64.6574 50.6939 64.6574C51.0613 64.6574 51.4175 64.6049 51.7625 64.5037C54.2147 63.7538 55.2833 60.5817 54.9571 55.0812C56.2731 53.5701 56.2956 51.0729 55.0095 47.4659C55.8757 46.1423 56.2956 44.0688 54.5484 41.0542C54.5371 41.0317 54.5146 41.0205 54.5034 41.0017C54.7846 39.4719 54.5034 37.451 52.8535 34.9538C53.1535 33.4052 52.7673 31.7179 51.7024 29.9144C51.6462 28.3133 50.4538 26.6861 48.1367 25.0625C48.1255 25.055 48.1105 25.0513 48.0955 25.0438C48.0392 25.01 47.9792 24.9875 47.9155 24.965C47.8517 24.9425 47.788 24.9125 47.7243 24.9013C47.7093 24.8976 47.698 24.8901 47.683 24.8863C47.6305 24.8788 47.5818 24.8938 47.5293 24.8976C47.4693 24.9013 47.4093 24.8938 47.3531 24.9088C47.2706 24.9275 47.1993 24.9613 47.1281 24.995C47.0868 25.0175 47.0418 25.0325 47.0043 25.0588C46.9368 25.1038 46.8881 25.16 46.8319 25.22C46.8056 25.25 46.7681 25.2688 46.7456 25.3025C46.7381 25.3137 46.7381 25.3287 46.7269 25.34C46.6894 25.3962 46.6706 25.46 46.6481 25.5237C46.6256 25.5875 46.5956 25.6475 46.5844 25.7112C46.5806 25.7262 46.5731 25.7374 46.5694 25.7524C46.2507 28.3583 44.8558 29.8057 43.2885 30.6043C43.5285 29.9144 43.446 29.2882 43.356 28.932C42.9773 27.4098 41.38 25.9662 40.0714 25.9662C39.4978 25.9662 38.9991 26.2549 38.7441 26.7349C38.5904 27.0236 37.848 27.5222 36.8206 27.9272C35.7933 27.5223 35.0508 27.0198 34.8971 26.7349C34.6384 26.2549 34.1435 25.9662 33.5698 25.9662C32.2612 25.9662 30.664 27.4098 30.2852 28.932C30.199 29.2882 30.1165 29.9181 30.3527 30.6118C28.7705 29.8132 27.3606 28.3696 27.0456 25.7524C27.0419 25.7374 27.0344 25.7262 27.0307 25.7112C27.0194 25.6437 26.9932 25.5837 26.9669 25.52C26.9444 25.4562 26.9219 25.3962 26.8882 25.34C26.8807 25.3287 26.8807 25.3137 26.8694 25.2987C26.8469 25.265 26.8094 25.2463 26.7794 25.2163C26.7269 25.1563 26.6744 25.1 26.607 25.055C26.5695 25.0288 26.5245 25.0138 26.4832 24.9913C26.4082 24.9538 26.337 24.92 26.2545 24.9051C26.1983 24.8938 26.142 24.8976 26.0858 24.8938C26.0333 24.8938 25.9845 24.8751 25.9283 24.8826C25.9133 24.8863 25.902 24.8938 25.8871 24.8976C25.8196 24.9088 25.7596 24.935 25.6958 24.9613C25.6321 24.9838 25.5683 25.0063 25.5121 25.04C25.5008 25.0475 25.4858 25.0475 25.4708 25.0588C23.1574 26.6898 21.9726 28.3246 21.9238 29.9256C20.8702 31.7254 20.4879 33.4017 20.7767 34.9391ZM92.0023 18.3179C92.0023 27.3317 84.6683 34.6617 75.6585 34.6617C66.6597 34.6617 59.3406 27.3277 59.3406 18.3179C59.3406 9.31905 66.6597 2 75.6585 2C84.6685 2 92.0023 9.31905 92.0023 18.3179ZM86.4043 15.1458C86.4043 14.5946 85.9581 14.1446 85.4031 14.1446H79.8276V8.5691C79.8276 8.01792 79.3814 7.56795 78.8265 7.56795H72.4785C71.9273 7.56795 71.4774 8.01414 71.4774 8.5691V14.1446H65.9018C65.3507 14.1446 64.9007 14.5908 64.9007 15.1458V21.5237C64.9007 22.0748 65.3469 22.5248 65.9018 22.5248H71.4774V28.0741C71.4774 28.6252 71.9236 29.0752 72.4785 29.0752H78.8265C79.3776 29.0752 79.8276 28.629 79.8276 28.0741V22.5248H85.4031C85.9543 22.5248 86.4043 22.0786 86.4043 21.5237V15.1458ZM77.8291 15.1458V9.57025H73.4798V15.1458C73.4798 15.697 73.0336 16.1469 72.4786 16.1469H66.9031V20.5226H72.4786C73.0298 20.5226 73.4798 20.9688 73.4798 21.5238V27.073H77.8291V21.5238C77.8291 20.9726 78.2753 20.5226 78.8303 20.5226H84.4058V16.1469H78.8303C78.2791 16.1469 77.8291 15.697 77.8291 15.1458ZM60.4842 8.0667H52.1115V14.2872H57.7995C58.3095 12.0299 59.2244 9.92271 60.4842 8.0667ZM33.6154 40.3579V37.2495C27.9873 35.9184 24.5003 34.3811 22.9252 32.5213C22.5878 33.575 22.6028 34.5311 22.989 35.3672C23.7276 36.9757 26.1992 39.1055 33.6154 40.3579ZM33.6154 44.0886V42.3864C27.5337 41.3965 23.5559 39.6567 21.7667 37.2008C20.9455 38.8468 20.5855 40.7742 21.9204 42.3977C24.0463 44.9774 29.3743 45.7047 33.6154 44.0886ZM40.0383 35.1948C47.9348 33.2638 49.4908 31.3215 49.6898 30.313C49.8623 29.4356 49.1274 28.4832 48.205 27.6621C47.1401 31.0329 44.1631 33.1888 40.0386 33.5301L40.0383 35.1948ZM33.6154 35.1948V33.53C29.4722 33.1888 26.4875 31.0328 25.4189 27.6657C24.504 28.4869 23.7804 29.4355 23.9529 30.3091C24.1554 31.3178 25.7155 33.2601 33.6154 35.1948ZM40.0383 40.3579C47.436 39.1055 49.9068 36.9796 50.6497 35.3748C51.0359 34.5386 51.0584 33.5825 50.7209 32.5251C49.1462 34.3811 45.6591 35.9146 40.0346 37.2495L40.0383 40.3579Z" fill="black"/>
</g>
<defs>
<filter id="filter0_d_31_440" x="0" y="0" width="98.0023" height="98" filterUnits="userSpaceOnUse" color-interpolation-filters="sRGB">
<feFlood flood-opacity="0" result="BackgroundImageFix"/>
<feColorMatrix in="SourceAlpha" type="matrix" values="0 0 0 0 0 0 0 0 0 0 0 0 0 0 0 0 0 0 127 0" result="hardAlpha"/>
<feOffset dx="2" dy="2"/>
<feGaussianBlur stdDeviation="2"/>
<feComposite in2="hardAlpha" operator="out"/>
<feColorMatrix type="matrix" values="0 0 0 0 0 0 0 0 0 0 0 0 0 0 0 0 0 0 0.45 0"/>
<feBlend mode="normal" in2="BackgroundImageFix" result="effect1_dropShadow_31_440"/>
<feBlend mode="normal" in="SourceGraphic" in2="effect1_dropShadow_31_440" result="shape"/>
</filter>
</defs>
</svg>
